<svg width="240" height="240" viewBox="0 0 240 240" fill="none" xmlns="http://www.w3.org/2000/svg">
<g clip-path="url(#clip0_45_243)">
<mask id="mask0_45_243" style="mask-type:luminance" maskUnits="userSpaceOnUse" x="0" y="0" width="240" height="240">
<path d="M120 240C186.274 240 240 186.274 240 120C240 53.7258 186.274 0 120 0C53.7258 0 0 53.7258 0 120C0 186.274 53.7258 240 120 240Z" fill="white"/>
</mask>
<g mask="url(#mask0_45_243)">
<path d="M240 0H0V240H240V0Z" fill="#141414"/>
<path opacity="0.75" d="M182.304 0C182.304 0 41.8084 89.648 32.5244 240H240V0H182.304Z" fill="url(#paint0_linear_45_243)"/>
<path d="M109.544 93.4L71.6156 118.44C70.4956 119.18 70.4956 120.824 71.6156 121.564L109.888 146.832C111.836 148.12 113.008 150.3 113.008 152.632V192.316C113.008 193.92 111.204 194.86 109.892 193.94L42.1436 146.672C40.3956 145.452 39.3516 143.456 39.3516 141.324V98.684C39.3516 96.552 40.3916 94.556 42.1436 93.336L109.892 46.068C111.204 45.152 113.008 46.092 113.008 47.692V86.964C113.008 89.556 111.708 91.976 109.544 93.404V93.4Z" fill="#FAF0F0"/>
<path d="M200.644 98.68V141.32C200.644 143.452 199.604 145.448 197.852 146.668L130.104 193.936C128.792 194.852 126.988 193.912 126.988 192.312V152.628C126.988 150.292 128.16 148.112 130.108 146.828L168.38 121.56C169.5 120.82 169.5 119.176 168.38 118.436L130.452 93.396C128.288 91.968 126.988 89.548 126.988 86.956V47.684C126.988 46.08 128.792 45.14 130.104 46.06L197.852 93.328C199.6 94.548 200.644 96.544 200.644 98.676V98.68Z" fill="#FAF0F0"/>
</g>
</g>
<rect x="0.5" y="0.5" width="239" height="239" rx="119.5" stroke="#373737"/>
<defs>
<linearGradient id="paint0_linear_45_243" x1="86.9404" y1="85.408" x2="217.444" y2="176.936" gradientUnits="userSpaceOnUse">
<stop stop-color="#6E5843"/>
<stop offset="0.33" stop-color="#6E5843" stop-opacity="0"/>
</linearGradient>
<clipPath id="clip0_45_243">
<rect width="240" height="240" rx="120" fill="white"/>
</clipPath>
</defs>
</svg>
