<svg width="11318" height="1787" viewBox="0 0 11318 1787" fill="none" xmlns="http://www.w3.org/2000/svg">
<path fill-rule="evenodd" clip-rule="evenodd" d="M33.0291 154.82L298.325 0.00195312L575.985 159.752L310.128 314.328L33.0291 154.82ZM0 232.725V1152.83C0 1224.14 37.6341 1290.16 98.9965 1326.49L584.195 1613.75V1303.37L289.176 1126.34L268.787 1114.11V1090.33V387.449L0 232.725ZM668.191 1616.08L938.279 1461.33L938.252 1141.7L668.191 1303.4V1616.08ZM886.765 1074.63L653.657 940.511L393.514 1090.99L626.217 1230.63L886.765 1074.63ZM624.202 860.513V230.073L352.783 387.367V1017.52L624.202 860.513Z" fill="#E0E7FF"/>
<path d="M1747.31 1183.31H2108.33V1357.54H1527.56V261.936H1747.31V1183.31ZM3056.36 903.916C3056.36 935.308 3054.27 963.562 3050.08 988.676H2414.38C2419.61 1051.46 2441.59 1100.64 2480.3 1136.22C2519.02 1171.8 2566.63 1189.59 2623.14 1189.59C2704.76 1189.59 2762.84 1154.53 2797.37 1084.42H3034.38C3009.27 1168.14 2961.14 1237.2 2889.98 1291.61C2818.82 1344.98 2731.45 1371.67 2627.85 1371.67C2544.14 1371.67 2468.79 1353.35 2401.82 1316.73C2335.9 1279.06 2284.1 1226.21 2246.43 1158.2C2209.81 1090.18 2191.49 1011.7 2191.49 922.751C2191.49 832.759 2209.81 753.754 2246.43 685.737C2283.05 617.719 2334.33 565.398 2400.25 528.774C2466.18 492.149 2542.04 473.837 2627.85 473.837C2710.52 473.837 2784.29 491.626 2849.17 527.204C2915.09 562.782 2965.84 613.534 3001.42 679.458C3038.05 744.336 3056.36 819.156 3056.36 903.916ZM2828.76 841.13C2827.72 784.624 2807.31 739.627 2767.55 706.142C2727.78 671.61 2679.12 654.344 2621.57 654.344C2567.16 654.344 2521.12 671.087 2483.44 704.572C2446.82 737.011 2424.32 782.531 2415.95 841.13H2828.76ZM3160.25 919.612C3160.25 831.713 3177.52 753.754 3212.05 685.737C3247.63 617.719 3295.76 565.398 3356.45 528.774C3417.15 492.149 3484.64 473.837 3558.94 473.837C3615.44 473.837 3669.33 486.394 3720.61 511.508C3771.88 535.575 3812.69 568.014 3843.04 608.825V196.012H4065.93V1357.54H3843.04V1228.83C3815.83 1271.73 3777.64 1306.26 3728.46 1332.42C3679.27 1358.59 3622.24 1371.67 3557.37 1371.67C3484.12 1371.67 3417.15 1352.83 3356.45 1315.16C3295.76 1277.49 3247.63 1224.64 3212.05 1156.63C3177.52 1087.56 3160.25 1008.56 3160.25 919.612ZM3844.61 922.751C3844.61 869.384 3834.14 823.864 3813.22 786.193C3792.29 747.476 3764.03 718.176 3728.46 698.294C3692.88 677.365 3654.68 666.901 3613.87 666.901C3573.06 666.901 3535.39 676.842 3500.86 696.724C3466.33 716.606 3438.07 745.906 3416.1 784.624C3395.17 822.295 3384.71 867.291 3384.71 919.612C3384.71 971.933 3395.17 1017.98 3416.1 1057.74C3438.07 1096.46 3466.33 1126.28 3500.86 1147.21C3536.44 1168.14 3574.11 1178.6 3613.87 1178.6C3654.68 1178.6 3692.88 1168.66 3728.46 1148.78C3764.03 1127.85 3792.29 1098.55 3813.22 1060.88C3834.14 1022.16 3844.61 976.119 3844.61 922.751ZM4621.16 473.837C4686.04 473.837 4743.07 486.917 4792.25 513.077C4841.43 538.191 4880.15 571.154 4908.4 611.964V487.963H5129.72V1363.82C5129.72 1444.39 5113.5 1516.07 5081.06 1578.86C5048.62 1642.69 4999.96 1692.92 4935.09 1729.54C4870.21 1767.21 4791.73 1786.05 4699.64 1786.05C4576.16 1786.05 4474.66 1757.27 4395.13 1699.72C4316.65 1642.17 4272.18 1563.68 4261.71 1464.27H4479.89C4491.4 1504.04 4515.99 1535.43 4553.67 1558.45C4592.38 1582.52 4638.95 1594.55 4693.36 1594.55C4757.19 1594.55 4808.99 1575.19 4848.76 1536.48C4888.52 1498.81 4908.4 1441.25 4908.4 1363.82V1228.83C4880.15 1269.64 4840.91 1303.65 4790.68 1330.86C4741.5 1358.06 4684.99 1371.67 4621.16 1371.67C4547.91 1371.67 4480.94 1352.83 4420.25 1315.16C4359.55 1277.49 4311.42 1224.64 4275.84 1156.63C4241.31 1087.56 4224.04 1008.56 4224.04 919.612C4224.04 831.713 4241.31 753.754 4275.84 685.737C4311.42 617.719 4359.03 565.398 4418.68 528.774C4479.37 492.149 4546.86 473.837 4621.16 473.837ZM4908.4 922.751C4908.4 869.384 4897.94 823.864 4877.01 786.193C4856.08 747.476 4827.83 718.176 4792.25 698.294C4756.67 677.365 4718.48 666.901 4677.67 666.901C4636.86 666.901 4599.18 676.842 4564.65 696.724C4530.12 716.606 4501.87 745.906 4479.89 784.624C4458.96 822.295 4448.5 867.291 4448.5 919.612C4448.5 971.933 4458.96 1017.98 4479.89 1057.74C4501.87 1096.46 4530.12 1126.28 4564.65 1147.21C4600.23 1168.14 4637.9 1178.6 4677.67 1178.6C4718.48 1178.6 4756.67 1168.66 4792.25 1148.78C4827.83 1127.85 4856.08 1098.55 4877.01 1060.88C4897.94 1022.16 4908.4 976.119 4908.4 922.751ZM5455.79 384.368C5417.07 384.368 5384.63 372.334 5358.47 348.266C5333.36 323.152 5320.8 292.283 5320.8 255.658C5320.8 219.033 5333.36 188.687 5358.47 164.619C5384.63 139.505 5417.07 126.948 5455.79 126.948C5494.5 126.948 5526.42 139.505 5551.53 164.619C5577.69 188.687 5590.77 219.033 5590.77 255.658C5590.77 292.283 5577.69 323.152 5551.53 348.266C5526.42 372.334 5494.5 384.368 5455.79 384.368ZM5564.09 487.963V1357.54H5344.34V487.963H5564.09ZM6037.05 668.471V1089.13C6037.05 1118.43 6043.85 1139.88 6057.46 1153.49C6072.11 1166.04 6096.18 1172.32 6129.66 1172.32H6231.69V1357.54H6093.56C5908.34 1357.54 5815.73 1267.55 5815.73 1087.56V668.471H5712.14V487.963H5815.73V272.924H6037.05V487.963H6231.69V668.471H6037.05ZM7221.65 487.963L6683.26 1768.78H6449.39L6637.74 1335.56L6289.29 487.963H6535.72L6760.17 1095.41L6987.77 487.963H7221.65Z" fill="#E0E7FF"/>
<path d="M8391.95 261.936L8021.52 976.119V1357.54H7801.77V976.119L7429.76 261.936H7677.77L7913.21 762.649L8147.09 261.936H8391.95ZM8630.13 384.368C8591.41 384.368 8558.97 372.334 8532.81 348.266C8507.7 323.152 8495.14 292.283 8495.14 255.658C8495.14 219.033 8507.7 188.687 8532.81 164.619C8558.97 139.505 8591.41 126.948 8630.13 126.948C8668.85 126.948 8700.76 139.505 8725.88 164.619C8752.04 188.687 8765.12 219.033 8765.12 255.658C8765.12 292.283 8752.04 323.152 8725.88 348.266C8700.76 372.334 8668.85 384.368 8630.13 384.368ZM8738.43 487.963V1357.54H8518.68V487.963H8738.43ZM9763.91 903.916C9763.91 935.308 9761.81 963.562 9757.63 988.676H9121.93C9127.16 1051.46 9149.13 1100.64 9187.85 1136.22C9226.57 1171.8 9274.18 1189.59 9330.69 1189.59C9412.31 1189.59 9470.38 1154.53 9504.92 1084.42H9741.93C9716.82 1168.14 9668.68 1237.2 9597.52 1291.61C9526.37 1344.98 9438.99 1371.67 9335.4 1371.67C9251.68 1371.67 9176.34 1353.35 9109.37 1316.73C9043.44 1279.06 8991.65 1226.21 8953.98 1158.2C8917.35 1090.18 8899.04 1011.7 8899.04 922.751C8899.04 832.759 8917.35 753.754 8953.98 685.737C8990.6 617.719 9041.87 565.398 9107.8 528.774C9173.72 492.149 9249.59 473.837 9335.4 473.837C9418.06 473.837 9491.84 491.626 9556.71 527.204C9622.64 562.782 9673.39 613.534 9708.97 679.458C9745.59 744.336 9763.91 819.156 9763.91 903.916ZM9536.31 841.13C9535.26 784.624 9514.86 739.627 9475.09 706.142C9435.33 671.61 9386.67 654.344 9329.12 654.344C9274.7 654.344 9228.66 671.087 9190.99 704.572C9154.36 737.011 9131.87 782.531 9123.5 841.13H9536.31ZM10144.1 196.012V1357.54H9924.3V196.012H10144.1ZM10304.7 919.612C10304.7 831.713 10321.9 753.754 10356.5 685.737C10392 617.719 10440.2 565.398 10500.9 528.774C10561.6 492.149 10629 473.837 10703.3 473.837C10759.8 473.837 10813.7 486.394 10865 511.508C10916.3 535.575 10957.1 568.014 10987.4 608.825V196.012H11210.3V1357.54H10987.4V1228.83C10960.2 1271.73 10922 1306.26 10872.9 1332.42C10823.7 1358.59 10766.7 1371.67 10701.8 1371.67C10628.5 1371.67 10561.6 1352.83 10500.9 1315.16C10440.2 1277.49 10392 1224.64 10356.5 1156.63C10321.9 1087.56 10304.7 1008.56 10304.7 919.612ZM10989 922.751C10989 869.384 10978.6 823.864 10957.6 786.193C10936.7 747.476 10908.4 718.176 10872.9 698.294C10837.3 677.365 10799.1 666.901 10758.3 666.901C10717.5 666.901 10679.8 676.842 10645.3 696.724C10610.7 716.606 10582.5 745.906 10560.5 784.624C10539.6 822.295 10529.1 867.291 10529.1 919.612C10529.1 971.933 10539.6 1017.98 10560.5 1057.74C10582.5 1096.46 10610.7 1126.28 10645.3 1147.21C10680.8 1168.14 10718.5 1178.6 10758.3 1178.6C10799.1 1178.6 10837.3 1168.66 10872.9 1148.78C10908.4 1127.85 10936.7 1098.55 10957.6 1060.88C10978.6 1022.16 10989 976.119 10989 922.751Z" fill="url(#paint0_linear_1584_13411)"/>
<defs>
<linearGradient id="paint0_linear_1584_13411" x1="9365" y1="359.539" x2="9365" y2="1256.54" gradientUnits="userSpaceOnUse">
<stop stop-color="#6366F1"/>
<stop offset="1" stop-color="#8185F3"/>
</linearGradient>
</defs>
</svg>
