<svg width="384" height="300" viewBox="0 0 384 300" fill="none" xmlns="http://www.w3.org/2000/svg">

<path d="M217.5 2V49M217.5 49V99M217.5 49H167.5M217.5 49H267.5M217.5 99V149M217.5 99H167.5M217.5 99H267.5M217.5 149V199M217.5 149H167.5M217.5 149H267.5M217.5 199V249M217.5 199H167.5M217.5 199H267.5M217.5 249V297M217.5 249H167.5M217.5 249H267.5M267.5 2V49M267.5 49V99M267.5 49H317.5M267.5 99V149M267.5 99H317.5M267.5 149V199M267.5 149H317.5M267.5 199V249M267.5 199H317.5M267.5 249V297M267.5 249H317.5M317.5 2V49M317.5 49V99M317.5 49H367.5M317.5 99V149M317.5 99H367.5M317.5 149V199M317.5 149H367.5M317.5 199V249M317.5 199H367.5M317.5 249V297M317.5 249H367.5M367.5 2V49M367.5 49V99M367.5 49H417.5M367.5 99V149M367.5 99H417.5M367.5 149V199M367.5 149H417.5M367.5 199V249M367.5 199H417.5M367.5 249V297M367.5 249H417.5M417.5 2V49M417.5 49V99M417.5 49H467.5M417.5 99V149M417.5 99H467.5M417.5 149V199M417.5 149H467.5M417.5 199V249M417.5 199H467.5M417.5 249V297M417.5 249H467.5M467.5 2V49M467.5 49V99M467.5 49H517.5M467.5 99V149M467.5 99H517.5M467.5 149V199M467.5 149H517.5M467.5 199V249M467.5 199H517.5M467.5 249V297M467.5 249H517.5M517.5 2V49M517.5 49V99M517.5 49H559.5M517.5 99V149M517.5 99H559.5M517.5 149V199M517.5 149H559.5M517.5 199V249M517.5 199H559.5M517.5 249V297M517.5 249H559.5M167.5 249V199M167.5 249V297M167.5 249H117.5M167.5 199V149M167.5 199H117.5M167.5 149V99M167.5 149H117.5M167.5 99V49M167.5 99H117.5M167.5 49V2M167.5 49H117.5M559.5 -1H-174.5M-132.5 2V49M-132.5 49V99M-132.5 49H-174.5M-132.5 49H-82.5M-132.5 99V149M-132.5 99H-174.5M-132.5 99H-82.5M-132.5 149V199M-132.5 149H-174.5M-132.5 149H-82.5M-132.5 199V249M-132.5 199H-174.5M-132.5 199H-82.5M-132.5 249V297M-132.5 249H-174.5M-132.5 249H-82.5M-82.5 2V49M-82.5 49V99M-82.5 49H-32.5M-82.5 99V149M-82.5 99H-32.5M-82.5 149V199M-82.5 149H-32.5M-82.5 199V249M-82.5 199H-32.5M-82.5 249V297M-82.5 249H-32.5M-32.5 2V49M-32.5 49V99M-32.5 49H17.5M-32.5 99V149M-32.5 99H17.5M-32.5 149V199M-32.5 149H17.5M-32.5 199V249M-32.5 199H17.5M-32.5 249V297M-32.5 249H17.5M17.5 2V49M17.5 49V99M17.5 49H67.5M17.5 99V149M17.5 99H67.5M17.5 149V199M17.5 149H67.5M17.5 199V249M17.5 199H67.5M17.5 249V297M17.5 249H67.5M67.5 2V49M67.5 49V99M67.5 49H117.5M67.5 99V149M67.5 99H117.5M67.5 149V199M67.5 149H117.5M67.5 199V249M67.5 199H117.5M67.5 249V297M67.5 249H117.5M117.5 2V49M117.5 49V99M117.5 99V149M117.5 149V199M117.5 199V249M117.5 249V297" stroke="url(#paint0_radial_2_351)" stroke-opacity="0.3"/>
<path d="M67.5 199L67.5 147" stroke="black" stroke-opacity="0.9" stroke-width="3" transform="translate(0,15)"/>
<path d="M117.5 199L117.5 121" stroke="black" stroke-opacity="0.9" stroke-width="3" transform="translate(0,15)"/>
<path d="M167.5 199L167.5 132" stroke="black" stroke-opacity="0.9" stroke-width="3" transform="translate(0,15)"/>
<path d="M217.5 199L217.5 108" stroke="black" stroke-opacity="0.9" stroke-width="3" transform="translate(0,15)"/>
<path d="M267.5 199L267.5 88" stroke="black" stroke-opacity="0.9" stroke-width="3" transform="translate(0,15)"/>
<path d="M317.5 199L317.5 119" stroke="black" stroke-opacity="0.9" stroke-width="3" transform="translate(0,15)"/>
<defs>
<radialGradient id="paint0_radial_2_351" cx="0" cy="0" r="1" gradientUnits="userSpaceOnUse" gradientTransform="translate(192.5 148) rotate(34.9245) scale(173.8 428.085)">
<stop stop-color="#000000"/>
<stop offset="1" stop-color="#000000" stop-opacity="0"/>
</radialGradient>
</defs>
</svg>
