<?xml version="1.0" encoding="utf-8"?>
<!-- Svg Vector Icons : http://www.onlinewebfonts.com/icon -->
<!DOCTYPE svg PUBLIC "-//W3C//DTD SVG 1.1//EN" "http://www.w3.org/Graphics/SVG/1.1/DTD/svg11.dtd">
<svg version="1.1" xmlns="http://www.w3.org/2000/svg" xmlns:xlink="http://www.w3.org/1999/xlink" x="0px" y="0px" viewBox="0 0 256 256" enable-background="new 0 0 256 256" xml:space="preserve">
<metadata> Svg Vector Icons : http://www.onlinewebfonts.com/icon </metadata>
<g><g><g><path fill="#000000" d="M122.9,10.8c-11.8,3.9-20.6,22.2-25.7,53.1c-1.9,11.8-3.7,30-3.7,38.3v3.6h15.2h15.2v21.4v21.4h5.2h5.2v-21.4v-21.4H150h15.5l-0.3-8.3c-0.2-4.5-0.8-12.5-1.3-17.8c-2.9-27.8-8.1-46.9-16-58.8c-3.1-4.6-6.1-7.5-9.8-9.3C134.5,9.9,127,9.4,122.9,10.8z"/><path fill="#000000" d="M97.8,16c-22,9.1-39.8,25.9-50.9,48.1c-5.2,10.5-7.8,19.6-8.9,30.8c-0.5,5.1-0.4,6,0.2,7.5c1.4,2.9,2.1,3.1,11.9,3.4L59,106l20.3,21.4l20.3,21.4l-7.9,0.2c-7.8,0.2-7.9,0.2-9.2,1.6L81,152l-0.1,44.7c-0.1,49.2-0.2,46.8,2.9,48.4c2.2,1.1,88.8,1.1,91,0c3.1-1.6,3,1.5,3-47.6c0-47.6,0-46.7-2.3-47.8c-0.5-0.2-4.1-0.5-8.1-0.7l-7.2-0.2l20.9-21.4l20.9-21.4l6.4-0.2c7.2-0.3,8.2-0.6,9.5-3.4c0.7-1.5,0.7-2.4,0.2-7.6c-1-11-3.5-19.6-8.6-30.1c-10-20.6-26.2-36.9-46.3-46.6c-2.7-1.3-5.1-2.4-5.3-2.4c-0.2,0,0.2,0.9,1,2.1c3.5,5.6,7.8,16.8,10.4,27.4c3.8,15.4,5.8,30.2,7.3,55.2l0.3,5.3l5.1,0.1l5.1,0.1L166,127.4c-17.3,17.7-21.1,21.4-22.4,21.5l-1.5,0.1l1.1,0.8c2.4,1.7,2.5,2.5,2.5,26c0,23.5-0.1,24.3-2.5,26c-1,0.7-3,0.8-14.1,0.8h-13l-1.4-1.4l-1.4-1.4v-23.9v-23.9l1.4-1.4c1.3-1.3,1.3-1.4,0.4-1.6c-0.5-0.1-10.1-9.8-21.2-21.5L73.6,106l4.5-0.2l4.5-0.2l0.3-8.4c1-25.3,5.5-50.9,11.5-66.7c1.8-4.8,5.7-12.6,7.2-14.8c0.5-0.8,0.8-1.4,0.5-1.4C101.9,14.4,99.9,15.1,97.8,16z"/></g></g></g>
</svg>