<svg xmlns="http://www.w3.org/2000/svg" viewBox="-0.03 0 2000.08 1975" xmlns:v="https://vecta.io/nano"><ellipse cx="1001.234" cy="987.034" rx="997.027" ry="987.615" fill="#b3b3b3"/><path d="M1019.038 311.223c-78.709 0-150.678 14.133-215.906 42.398-65.229 27.831-117.629 70.229-157.201 127.195-39.572 56.531-60.445 128.282-62.619 215.254h266.133c1.305-35.658 10.002-65.446 26.092-89.363 16.09-24.352 36.745-42.615 61.967-54.791 25.222-12.611 51.965-18.916 80.23-18.916 29.136 0 55.663 6.088 79.58 18.264 24.352 12.176 43.703 29.571 58.053 52.184s21.525 48.921 21.525 78.926c0 28.266-6.305 53.923-18.916 76.971-12.611 22.613-29.571 43.268-50.879 61.967s-45.441 36.744-72.402 54.139c-36.093 22.613-66.968 47.835-92.625 75.666s-45.226 64.359-58.707 109.584c-13.046 45.225-19.786 105.888-20.221 181.988v22.178h247.217v-22.178c.435-42.616 5.872-78.491 16.309-107.627 10.871-29.135 27.177-54.793 48.92-76.971 22.178-22.178 50.445-43.486 84.799-63.924 40.877-24.352 76.317-51.53 106.322-81.535 30.005-30.44 53.27-65.23 69.795-104.367 16.959-39.572 25.438-84.796 25.438-135.674 0-76.1-18.915-141.113-56.748-195.035s-90.016-95.015-156.549-123.281c-66.533-28.701-143.069-43.051-229.605-43.051zm-26.742 1059.313c-43.486 0-80.666 15.22-111.541 45.66-30.44 30.44-45.443 66.968-45.008 109.584-.435 43.051 14.568 80.014 45.008 110.889 30.875 30.44 68.055 45.66 111.541 45.66 27.831 0 53.486-6.958 76.969-20.873 23.482-14.35 42.4-33.266 56.75-56.748 14.785-23.917 22.395-50.227 22.83-78.928-.435-42.616-16.307-79.144-47.617-109.584s-67.62-45.66-108.932-45.66z" fill="#e6e6e6"/></svg>