<?xml version="1.0" encoding="UTF-8"?>
<svg width="3581px" height="720px" viewBox="0 0 3581 720" version="1.1" xmlns="http://www.w3.org/2000/svg" xmlns:xlink="http://www.w3.org/1999/xlink">
    <!-- Generator: Sketch 58 (84663) - https://sketch.com -->
    <title>logo/color</title>
    <desc>Created with Sketch.</desc>
    <g id="logo/color" stroke="none" stroke-width="1" fill="none" fill-rule="evenodd">
        <g id="logotype/color" transform="translate(900.000000, 3.000000)" fill="#082542" fill-rule="nonzero" stroke="#7F7F7F">
            <path d="M463.295292,583.054945 L226.226106,583.054945 L184.82525,717 L0,717 L263.191155,0 L425.837375,0 L691,717 L505.189016,717 L463.295292,583.054945 Z M268,449 L422,449 L344.753994,200 L268,449 Z M742,717 L742,0 L972.810315,0 C1036.13173,0 1093.05453,14.3628371 1143.58042,43.0889423 C1194.10631,71.8150475 1233.55857,112.359285 1261.93837,164.722871 C1290.31818,217.086457 1304.67191,275.768906 1305,340.771978 L1305,373.765797 C1305,439.425466 1291.1384,498.272061 1263.41477,550.307349 C1235.69115,602.342637 1196.649,643.051021 1146.28715,672.433723 C1095.9253,701.816424 1039.74069,716.671702 977.731643,717 L742,717 Z M916,134 L916,584 L976.018391,584 C1025.54201,584 1063.58607,566.377225 1090.15172,531.131148 C1116.71737,495.88507 1130,443.508544 1130,374 L1130,343.016393 C1130,273.83572 1116.71737,221.705093 1090.15172,186.622951 C1063.58607,151.540808 1024.88608,134 974.050575,134 L916,134 Z M1802.29529,583.054945 L1565.22611,583.054945 L1523.82525,717 L1339,717 L1602.19116,0 L1764.83738,0 L2030,717 L1844.18902,717 L1802.29529,583.054945 Z M1607,449 L1761,449 L1683.75399,200 L1607,449 Z M2681,717 L2509.08306,717 L2254.90214,270.84478 L2254.90214,717 L2082,717 L2082,0 L2254.90214,0 L2508.59046,446.15522 L2508.59046,0 L2681,0 L2681,717 Z" id="ADAN"></path>
        </g>
        <g id="logomark/color">
            <g id="colors/salmon" transform="translate(0.000000, 120.000000)" fill="#FFBDA4">
                <rect id="Rectangle" x="0" y="0" width="600" height="600"></rect>
            </g>
            <g id="colors/cobalt" transform="translate(120.000000, 0.000000)" fill="#082542">
                <rect id="Rectangle" x="0" y="0" width="600" height="600"></rect>
            </g>
        </g>
    </g>
</svg>