<svg xmlns="http://www.w3.org/2000/svg" xml:space="preserve" id="Layer_1" x="0" y="0" version="1.1" viewBox="0 0 2500 268"><style>.st3{fill:#326ad5}.st4{fill:#151617}</style><g id="Layer_x0020_1"><g id="_2500575993552"><path d="M429.5 189.3 335.1 25.6C314.4-8.5 264-8.9 244 27l-99 170.2c-18.5 31.2 4.4 70.4 41.4 70.4h198.5c37.3 0 65.3-40.2 44.6-78.3" style="fill:#3156aa"/><path d="m293.4 202-5.8-10.2c-5.4-9.4-17.4-29.8-17.4-29.8L190.3 23.4C169.7-7.4 120.7-10 100 28.9L7.1 189.6c-19.2 33.8 3.6 77.7 45.4 78h331.7c-51.2.4-67.6-26.1-90.8-65.6" style="fill:#1972e2"/><linearGradient id="SVGID_1_" x1="125.41" x2="339.75" y1="128.628" y2="44.478" gradientTransform="matrix(1.0032 0 0 -1.0032 -2.843 269.655)" gradientUnits="userSpaceOnUse"><stop offset="0" style="stop-color:#264ca2;stop-opacity:0"/><stop offset="1" style="stop-color:#234588"/></linearGradient><path d="m293.4 202-5.8-10.2c-5.4-9.4-17.4-29.8-17.4-29.8l-52.1-90.4-73.5 126C126.1 228.8 149 268 186 268h198.1c-51.5-.4-67.5-26.5-90.7-66" style="fill:url(#SVGID_1_)"/><path d="M2481.5 254.6c-15.7 0-28-3.4-37.4-9.3-9.8-6.4-14.9-15.7-14.9-28.5V31.5h24.6c8.9 0 16.6 7.2 16.6 16.6v163.2c0 .4 0 8.1 6.4 14.4 3.8 3.8 8.5 5.9 14.9 5.9h4.7c1.7 0 3.4 1.7 3.4 3.4v20zM1950.3 254.6c-25.5 0-46.3-6.8-62-20.4-8.1-6.8-13.6-14.5-17-22.9-3.4-8.5-5.1-20.8-5.1-37.4 0-16.1 1.7-28.9 5.1-37.4 3-8.1 8.5-15.3 16.6-22.1 15.7-13.6 36.6-20.4 62-20.4 25.5 0 46.3 6.8 62 20.4 8.1 6.8 13.6 14.4 16.6 22.1 3.4 8.9 5.1 21.3 5.1 37.4 0 16.6-1.7 28.9-5.1 37.4s-8.9 16.1-17 22.9c-14.9 13.6-35.7 20.4-61.2 20.4m0-137.2c-28 0-42.1 19.1-42.1 56.9 0 38.3 14 57.4 42.1 57.4s42.1-19.1 42.1-56.9c0-38.3-14.5-57.4-42.1-57.4M2126.3 254.6c-22.1 0-42.5-5.9-59.9-17.4-1.7-1.7-5.1-3.8-9.4-6.4-.8-.4-1.7-1.7-1.7-3V31.5h25.1c8.9 0 16.6 7.7 16.6 16.6v57.4l7.7-4.3c8.9-4.7 20.8-6.8 36.1-6.8 26.8 0 47.2 8.1 60.8 23.8 11.9 14 17.9 32.7 17.9 55.7s-6.8 41.7-20.4 55.2c-15.9 17-40.5 25.5-72.8 25.5m4.2-137.2c-9.4 0-20 3.4-31.9 10.6l-1.7.9v92.2l1.7 1.3c9.3 5.9 20.4 8.9 31.9 8.9 15.3 0 27.2-6.4 35.3-19.1 6.8-10.2 10.6-23.4 10.6-38.3 0-37.4-15.7-56.5-45.9-56.5M2317.5 254.2c-46.7 0-76.1-30.6-76.1-80.3 0-49.3 28.9-79.9 75.2-79.9 17.8 0 33.1 4.7 45.5 13.6l2.5 1.7V97h32.7c2.1 0 3.4 1.7 3.4 3.4v150.9h-36.5v-13.6l-2.5 2.1c-10.2 9.3-26.4 14.4-44.2 14.4m8.5-133c-29.3 0-46.7 22.5-46.7 52.7s17.4 53.5 46.7 53.5c9.3 0 25.5-.9 38.3-13.6l.4-.4v-77.3l-.4-.4c-9-10.3-22.2-14.5-38.3-14.5" class="st3"/><path d="M807.6 252.5V31.1h184v14c0 11.1-8.9 20-20 20H853.5v59.5h118.1v34H853.5v59.5h118.1c11 0 20 8.9 20 20v14zM1255.9 31.1h-43.3c-8.1 0-15.3 3.4-20.4 9.8l-52.3 65.9-52.3-65.4c-5.1-6.4-12.3-9.8-20.4-9.8h-43.3l88 110.5-88 110.5h43.3c8.1 0 15.3-3.4 20.4-9.8l52.3-65.4 52.7 65.9c5.1 5.9 12.3 9.8 20.4 9.8h43.3l-88-110.5zM663.5 229.1l60.3-105.4V252h45.9V30.7h-28.5c-8.9 0-17.4 4.7-21.7 12.8l-72.2 131.7-72.2-131.8c-4.3-8.1-12.8-12.8-21.7-12.8H525V252h45.9V123.7l60.3 105.4zM1375.8 255c-63.7.8-115.6-49.3-116-113 0-34.9 10.6-63.8 30.6-83.7 20-19.6 48.9-30.2 83.3-30.2 40.4 0 72.2 14 95.2 41.2l-14.4 12.3c-8.9 7.6-22.1 8.1-31.9.9-12.8-9.8-28.9-14.5-47.2-14.5-45 0-71.8 27.2-71.8 73.1 0 46.3 27.6 74.8 71.8 74.8 18.7 0 34.4-5.1 47.2-14.4 9.4-7.2 22.5-6.8 31.9.9l14.4 12.3c-23 26.7-53.6 40.3-93.1 40.3" class="st4"/><path d="M1658.4 255c-71.4 0-115.6-43.3-115.6-113S1587 29 1657.5 29c34 0 62.5 9.8 84.6 29.8l-10.6 11.9c-4.7 5.1-11.5 8.1-18.3 8.1-3.8 0-7.7-.9-11-2.6-13.2-6.8-28.5-10.2-44.6-10.2-45.9 0-74.4 29.3-74.4 76.5 0 47.6 29.7 76.9 77.3 76.9 23 0 40.8-4.3 54-13.6l.8-.4v-45.5h-50.6V145c0-11 8.9-20 20-20h62.5c1.7 0 3.4 1.7 3.4 3.4v98.2c-21.7 18.7-52.7 28.4-92.2 28.4M1832.6 254.6c-15.7 0-28.1-3.4-37.4-9.3-9.8-6.4-14.9-15.7-14.9-28.5V31.5h24.6c8.9 0 16.6 7.2 16.6 16.6v163.2c0 .4 0 8.1 6.4 14.4 3.8 3.8 8.5 5.9 14.9 5.9h4.7c1.7 0 3.4 1.7 3.4 3.4v20z" class="st3"/></g></g></svg>