<svg width="3581" height="720" xmlns="http://www.w3.org/2000/svg"><g fill="none" fill-rule="evenodd"><path d="M1363.295 586.055h-237.069L1084.826 720H900L1163.191 3h162.646L1591 720h-185.811l-41.894-133.945ZM1168 452h154l-77.246-249L1168 452Zm474 268V3h230.81c63.322 0 120.245 14.363 170.77 43.089 50.526 28.726 89.979 69.27 118.358 121.634 28.38 52.363 42.734 111.046 43.062 176.049v32.994c0 65.66-13.862 124.506-41.585 176.541-27.724 52.036-66.766 92.744-117.128 122.127-50.362 29.382-106.546 44.238-168.555 44.566H1642Zm174-583v450h60.018c49.524 0 87.568-17.623 114.134-52.869C2016.717 498.885 2030 446.51 2030 377v-30.984c0-69.18-13.283-121.31-39.848-156.393C1963.586 154.541 1924.886 137 1874.05 137H1816Zm886.295 449.055h-237.069L2423.826 720H2239L2502.191 3h162.646L2930 720h-185.811l-41.894-133.945ZM2507 452h154l-77.246-249L2507 452Zm1074 268h-171.917l-254.18-446.155V720H2982V3h172.902l253.688 446.155V3H3581v717Z" fill="#082542" fill-rule="nonzero" stroke="#7F7F7F"/><path d="M0 120h600v600H0z" fill="#FFBDA4"/><path d="M120 0h600v600H120z" fill="#082542"/></g></svg>