<svg xmlns="http://www.w3.org/2000/svg" xmlns:xlink="http://www.w3.org/1999/xlink" xml:space="preserve" viewBox="0 0 2500 645.2"><defs><path id="a" d="M0 1h2500v643.2H0z"/></defs><clipPath id="b"><use xlink:href="#a" style="overflow:visible"/></clipPath><path d="M40.6 585.4h33.8v21.5H40.6zm2246.2-291.2c-8.8-5.5-21.6-8.3-38.4-8.3-10.3-.2-20.5 2-30 6.3-9.4 4.3-17.7 10.6-24.4 18.6-14.5 16.5-21.8 39.1-21.8 67.7v130.8h-50.7V252.6h50.7v52.9h1.3c6.5-17.1 18.1-31.9 33.2-42.2 14.7-10 32-15.3 49.8-15.2 10.2-.4 20.4.8 30.3 3.5v1h46.1V190l50.7-13.3v75.9h79.7v35.1h-79.7v144.6c0 17.2 3.6 29.5 10.8 36.8 7.2 7.4 19.2 11 35.9 11 11.6.3 23.1-2.6 33.2-8.5l-.1 35.1c-12 5.4-27.7 8-47.3 8-55.5 0-83.3-25.1-83.2-75.2V287.6h-46.1zm-362.6 93.7 76.4-8.5.2 25.5c.2 10.3-1.9 20.5-6.1 29.9-4.3 9.4-10.6 17.7-18.5 24.3-16.4 14.3-37.2 21.4-62.3 21.4-18.3 0-33-4-44.1-11.9-5.1-3.3-9.3-7.9-12.2-13.2-2.9-5.4-4.4-11.4-4.4-17.5q.15-25.8 18-36c11.7-6.6 29.4-11.3 53-14m76.3 121.3h50.8V342.3c0-63.8-37.3-95.7-111.7-95.7q-61.05 0-107.7 24v42.1c30.4-21 66.5-32 103.4-31.6 43.5 0 65.3 21.8 65.3 65.4l-95 10.8C1835.9 365.1 1801 393 1801 441c-.3 10.5 2 20.9 6.7 30.3s11.6 17.5 20.1 23.6c17.9 13.5 42.6 20.3 74.1 20.3 42.8 0 75.3-15.3 97.5-46.1h1.2v40.1zm-257.8 0h-47.5V287.4c.2-21.5 1.6-43 4-64.3h-1.1c-3 11-7.1 21.8-12.2 32l-139.4 254.1h-23.2L1383.9 257c-5.3-10.8-9.4-22.2-12.3-33.9h-1.1c1.9 21.5 2.6 43.2 2.3 64.8v221.3h-46.4V178.6h63.1l125.3 230.5c7.4 12.7 13.6 25.9 18.8 39.7h1.7c8.1-18.1 14.7-31.7 19.6-40.6l127.8-229.6h59.8zm-508.2 5.5c19.6 0 35.4-2.6 47.3-8l.1-35.1c-10.1 5.9-21.6 8.8-33.2 8.5-16.7 0-28.7-3.7-35.9-11-7.2-7.4-10.8-19.6-10.8-36.8V287.6h79.8v-35.1H1202v-75.9l-50.7 13.3v62.6h-54.5v35.1h54.5v151.9c0 50.1 27.7 75.2 83.2 75.2M727.6 341.8v129.3h70.5c30.5 0 54.2-5.8 71-17.5 8-5.2 14.5-12.3 18.9-20.8 4.4-8.4 6.6-17.9 6.3-27.4q0-63.6-107.1-63.6zm0-153.9v116h53.1c28.5 0 50.8-5.5 67.1-16.6 7.8-5 14.2-12 18.4-20.3 4.3-8.2 6.4-17.5 6-26.7 0-34.9-28.4-52.4-85.1-52.4zm-51.9 321.3V149.8h126.2c38.4 0 68.8 7.6 91.3 22.8s33.7 35 33.7 59.4c.3 19.7-7 38.7-20.4 53.2q-20.4 22.65-56.4 32.1v1c29.9 2.8 53.8 12 71.8 27.4 8.7 7.4 15.7 16.6 20.4 27s6.9 21.8 6.6 33.2q0 46.2-40.8 74.7c-27.2 19-61.5 28.5-102.9 28.6zm381.8 0h-50.8V252.6h50.8zm-24.7-321.8c-8.4.2-16.6-2.4-23.2-7.5-3-2.2-5.4-5-7.1-8.4-1.7-3.3-2.5-7-2.5-10.7s.8-7.4 2.5-10.7 4.1-6.2 7.1-8.4c6.6-5.2 14.8-7.9 23.2-7.6 8.5-.3 16.9 2.4 23.7 7.6 3 2.1 5.5 5 7.2 8.3s2.6 7 2.6 10.7-.9 7.4-2.6 10.7-4.2 6.1-7.2 8.3c-6.8 5.2-15.2 8-23.7 7.7M462.9 437.5c0 28.5-13.8 49.9-34.1 60.7-20.3 10.7-48.9 16.9-97.4 16.9h-295V501H330c44.8 0 74.8-7.2 89.6-15.3 16.3-8.9 27.3-30.4 27.3-48.4 0-28.1-18.9-42.9-33.2-51.3-7.3-4.3-31.5-15.2-95.1-15.2h-112v-14.1h114.6c71.8 0 87.1 7.1 104.5 17.6 18.5 11.3 37.2 31.3 37.2 63.2M333 215.8H231v11.8h102zm-208-36.2h212v11.8H125zm73.7 36.2h-128v11.8h128zm-89.1-81.1h55.9v10.2h-55.9zM209.3 544h-135v14.8h135zm-135-94.3h143.5V462H74.3zm76.7-44.1h-47.2V418H151zm93 45h92.8v10.6H244zm93.7-45H178.2V418h159.5zm114-187.9c-.1 27.4-8.3 54.2-23.7 76.9-2-1.1-4-2.2-5.9-3.3 18.9-19.9 29.5-46.3 29.6-73.6m0-2.9v2.8zm-3.3 93.6-.8-.6c17.7-25.5 26.6-56.5 26.6-93 0-54.2-18.6-96.6-55.8-127.3s-88.3-46.1-153.5-46H102.7v22.7H262c55.4 0 104.8 12.3 136.1 37.9 29.1 23.8 39.8 44.2 48.4 74.9-8.7-27.9-29.1-45.9-41.8-56.5-22.2-18.7-49.8-31.7-125-31.7H154.6v22.1H277c64.1 0 87.7 7.9 109.3 23.9 27.6 20.5 44.7 44.9 44.7 80.2 0 31.8-11.2 48.8-29.9 66.4-2.2-.9-4.4-1.7-6.6-2.5l2.1-1.1c20.3-11.2 34.3-32.7 34.3-62.9 0-33-18.9-53.6-37.5-65.3-17.4-10.9-33.9-18.2-104.4-18.2h-90V146h87.4c63.7 0 87.8 11.3 95.1 15.8 14.3 8.8 33.2 24 33.2 53.2 0 18.6-11 41-27.2 50.1-5.3 2.9-10.8 5.3-16.6 7-24.2-5.5-48.9-8.1-73.7-7.9H188.8V287h105.5c55.4 0 105.5 11.4 136.1 37.9 23.1 19.7 39.9 45.7 48.3 74.8-8.6-27.9-26.4-44.9-41.7-56.5-23.2-17.6-49.8-31.8-125-31.7H142v22.1h167.3c64.1 0 87.6 7.9 109.2 23.9 27.6 20.5 44.5 44.9 44.5 80.2 0 34-17.1 58.8-44.9 79.3-28.4 20.9-71.8 21.6-89.4 21.6h-93v22.1h69.5c58.2 0 97-5 130.6-29.9 31.5-23.5 48.3-53.8 48.3-93 .3 21-4.2 41.8-13.2 60.8s-22.2 35.7-38.7 48.8c-31.8 26.3-88.6 37.9-145.5 37.9H103.9v22.6h184.2c68.6 0 122.2-14.9 160.6-44.7 38.5-29.8 57.8-71.7 57.8-125.6-.1-54.2-18.8-96.7-56-127.4q-.9-1.05-2.1-1.8" style="clip-path:url(#b);fill-rule:evenodd;clip-rule:evenodd;fill:#1f2020"/></svg>