<svg xmlns="http://www.w3.org/2000/svg" width="284.44" height="88.539" viewBox="0 0 284.44 88.539">
  <g id="logo" transform="translate(-625.748 -345.31)">
    <g id="Group_4" data-name="Group 4" transform="translate(625.748 345.31)">
      <path id="Path_59" data-name="Path 59" d="M658.2,454.542c-17.733-10.263-30.61-17.713-31.405-18.142a1.9,1.9,0,0,1-.778-.723,2.008,2.008,0,0,1-.223-1.06c.042-2,.014-4,.014-5.905l-.015-.594,39.233,22.639Z" transform="translate(-625.767 -380.801)" fill="#38914c"/>
      <path id="Path_60" data-name="Path 60" d="M700.124,449.6c0,2.207-.011,4.382.005,6.557.007.849-.65,1.086-1.214,1.415Q685.557,465.3,672.2,473.033a2.41,2.41,0,0,1-1.343.426,1.824,1.824,0,0,1-.893-.319c-.78-.5-2.941-1.787-5.876-3.547Z" transform="translate(-642.181 -390.009)" fill="#48b961"/>
      <path id="Path_61" data-name="Path 61" d="M654.392,465.8l-6.661,3.7c-6.285-3.6-12.607-7.137-18.835-10.832a5.537,5.537,0,0,1-2.367-2.182,7.254,7.254,0,0,1-.553-3.113,35.734,35.734,0,0,1,.007-4Z" transform="translate(-625.823 -389.908)" fill="#38914c"/>
      <path id="Path_62" data-name="Path 62" d="M708.353,469.973c0,2.558-.041,4.615.018,6.67a1.761,1.761,0,0,1-1.148,1.694c-4.815,2.756-9.6,5.572-14.443,8.272-2.548,1.42-6.377.435-8.94-1.525-.241-.184-.431-.351-.561-.469Z" transform="translate(-650.406 -398.741)" fill="#48b961"/>
      <path id="Path_63" data-name="Path 63" d="M655.832,373.314c17.744-10.246,30.627-17.687,31.394-18.162a1.9,1.9,0,0,1,1.015-.313,2,2,0,0,1,1.029.335c1.71,1.032,3.456,2.006,5.111,2.959l.522.283-39.2,22.7Q655.769,377.215,655.832,373.314Z" transform="translate(-638.588 -349.394)" fill="#fd8605"/>
      <path id="Path_64" data-name="Path 64" d="M650.329,407.3c-1.912-1.1-3.792-2.2-5.685-3.267-.739-.418-.619-1.106-.621-1.758q-.033-15.433-.067-30.866a2.408,2.408,0,0,1,.3-1.377,1.823,1.823,0,0,1,.722-.614c.822-.427,3.016-1.657,6.006-3.322Q650.657,386.7,650.329,407.3Z" transform="translate(-633.548 -354.221)" fill="#fdab05"/>
      <path id="Path_65" data-name="Path 65" d="M656.05,364.807q.061-3.809.121-7.617c6.257-3.648,12.476-7.364,18.786-10.917a5.53,5.53,0,0,1,3.071-.963A7.237,7.237,0,0,1,681,346.384a35.748,35.748,0,0,1,3.462,2Z" transform="translate(-638.736 -345.31)" fill="#fd8605"/>
      <path id="Path_66" data-name="Path 66" d="M632.436,406.271c-2.216-1.277-3.979-2.338-5.789-3.314a1.765,1.765,0,0,1-.895-1.841c.015-5.548-.039-11.1.039-16.644.041-2.917,2.805-5.744,5.782-6.986.28-.114.519-.2.686-.253Q632.349,391.753,632.436,406.271Z" transform="translate(-625.748 -358.993)" fill="#fdab05"/>
      <path id="Path_67" data-name="Path 67" d="M739.591,404.725c.034,20.489.057,35.366.088,36.269a1.9,1.9,0,0,1-.234,1.037,2.006,2.006,0,0,1-.8.726c-1.749.967-3.463,2-5.113,2.955l-.506.311q-.066-22.648-.131-45.3Z" transform="translate(-671.669 -369.061)" fill="#1d86cb"/>
      <path id="Path_68" data-name="Path 68" d="M700.783,378.96c1.908-1.109,3.795-2.191,5.667-3.3.731-.432,1.268.015,1.833.338l26.788,15.334a2.414,2.414,0,0,1,1.043.947,1.826,1.826,0,0,1,.171.932c-.039.926-.068,3.441-.114,6.863Z" transform="translate(-657.908 -358.242)" fill="#2ba0ef"/>
      <path id="Path_69" data-name="Path 69" d="M751.267,411.692l6.541,3.9c.042,7.242.161,14.486.094,21.727a5.526,5.526,0,0,1-.7,3.143,7.244,7.244,0,0,1-2.414,2.042,35.827,35.827,0,0,1-3.462,2Z" transform="translate(-679.546 -373.761)" fill="#1d86cb"/>
      <path id="Path_70" data-name="Path 70" d="M718.4,368.6c2.211-1.284,4.011-2.283,5.757-3.366a1.761,1.761,0,0,1,2.042.142c4.8,2.779,9.638,5.5,14.407,8.334,2.508,1.491,3.579,5.3,3.172,8.5-.038.3-.086.549-.124.721Z" transform="translate(-665.459 -353.734)" fill="#2ba0ef"/>
    </g>
    <path id="Path_71" data-name="Path 71" d="M1093.226,394.3q-.014,7.253-.028,14.506l-4.724-.028q.014-11.444.028-22.89l4.5-.084,10.481,13.919-.139-13.891h5.142l.028,22.862-4.556.028Z" transform="translate(-198.326 -17.356)" fill="#23293d"/>
    <path id="Path_72" data-name="Path 72" d="M969.516,385.963l5.171-.114v9.2h9.085v-9.109l5.257-.084q-.057,11.4-.114,22.806l-5.086.028q-.042-4.542-.084-9.085H974.6q.014,4.584.028,9.167l-5.115-.057Z" transform="translate(-147.34 -17.375)" fill="#23293d"/>
    <path id="Path_73" data-name="Path 73" d="M934.338,408.206c-6.271-.018-10.43-3.028-12.037-8.062a11.864,11.864,0,0,1,4.457-13.351,12.777,12.777,0,0,1,14.472.223,9.888,9.888,0,0,1,1.438,1.314l-3.073,3.615a7.951,7.951,0,0,0-5.7-2.577,7.561,7.561,0,0,0-3.943,1.215,7.224,7.224,0,0,0-2.624,7.86,7.382,7.382,0,0,0,4.613,4.957,7.213,7.213,0,0,0,7.534-2.242l3.158,3.13a10.145,10.145,0,0,1-1.06,1.106A11.538,11.538,0,0,1,934.338,408.206Z" transform="translate(-126.856 -16.864)" fill="#23293d"/>
    <path id="Path_74" data-name="Path 74" d="M841.462,385.9h17.161v4.528l-12.018.057.028,4.612,10.844-.057q-.027,2.277-.057,4.556l-10.788.114-.028,9.085-5.115-.057Z" transform="translate(-92.456 -17.397)" fill="#23293d"/>
    <path id="Path_75" data-name="Path 75" d="M882.94,385.9H900.1v4.528l-12.018.057.028,4.612,10.844-.057q-.027,2.277-.057,4.556l-10.789.114-.028,9.085-5.115-.057Z" transform="translate(-110.233 -17.397)" fill="#23293d"/>
    <path id="Path_76" data-name="Path 76" d="M1070.644,408.763l-5.085.028q-.015-11.418-.028-22.834l5.085-.057Q1070.633,397.333,1070.644,408.763Z" transform="translate(-188.492 -17.397)" fill="#252b3f"/>
    <path id="Path_77" data-name="Path 77" d="M1011.629,461.552a7.1,7.1,0,0,1-2.982-1.019,7.542,7.542,0,0,1-.926-.646l1.137-2.124a5.908,5.908,0,0,0,1.081.671,5.994,5.994,0,0,0,2.552.567c1.054.034,1.371-.183,1.51-.306a1.388,1.388,0,0,0,.391-.615,1.262,1.262,0,0,0-.019-.69,1.679,1.679,0,0,0-1.1-.857c-1.46-.544-1.885-.4-2.848-.754a4.076,4.076,0,0,1-2.294-1.747,3.364,3.364,0,0,1-.367-1.8,3.744,3.744,0,0,1,3.061-3.608,6.367,6.367,0,0,1,4.685.56,6.023,6.023,0,0,1,1.582,1.314l-1.584,1.828a3.749,3.749,0,0,0-1.3-1.043,3.553,3.553,0,0,0-2.764-.125,1.371,1.371,0,0,0-.813.7,1.245,1.245,0,0,0,.093.95c.435.825,1.617.514,3.306,1.1a4.954,4.954,0,0,1,3.079,2.384,3.549,3.549,0,0,1,.125,2.19C1016.686,460.981,1014.674,461.516,1011.629,461.552Z" transform="translate(-163.715 -44.186)" fill="#292f42"/>
    <path id="Path_78" data-name="Path 78" d="M886.534,462.471q-.094-6.279-.186-12.558h2.906q.018,4.882.037,9.763l6.261-.037q-.038,1.435-.075,2.87Z" transform="translate(-111.694 -44.833)" fill="#2d3346"/>
    <path id="Path_79" data-name="Path 79" d="M799.754,384.718a12.008,12.008,0,0,0-12.24,11.978c.118,6.628,5.4,11.6,12.274,11.542,6.829-.057,12.057-5.143,12.072-11.759A11.838,11.838,0,0,0,799.754,384.718Zm.213,18.841a6.69,6.69,0,0,1-7-6.941c-.057-4.089,2.6-7.015,6.473-7.13a6.755,6.755,0,0,1,7.043,6.93C806.542,400.453,803.81,403.45,799.967,403.559Z" transform="translate(-69.332 -16.89)" fill="#23293d"/>
    <path id="Path_80" data-name="Path 80" d="M1027.339,384.918l-4.562.011-10.265,23.427,5.688-.014,2.175-5.161,9.257.033,2.222,5.072,5.758.057Zm-5.156,13.726,2.832-7.742,2.939,7.742Z" transform="translate(-165.768 -16.976)" fill="#23293d"/>
    <path id="Path_81" data-name="Path 81" d="M978.071,456.882a3.521,3.521,0,0,0-1.6-1.677,3.334,3.334,0,0,0,1.043-1.379,3.728,3.728,0,0,0-.44-3.271,4.042,4.042,0,0,0-3.025-1.685h-6.636q.037,6.6.074,13.192l3.615-.038,4.061.038a4.357,4.357,0,0,0,2.944-2.5A3.573,3.573,0,0,0,978.071,456.882Zm-7.714-5.7,3.242.037a1.58,1.58,0,0,1,0,2.87H970.32Q970.339,452.633,970.357,451.18Zm3.917,8.525-3.88.009-.036-3.349,3.469-.027a1.876,1.876,0,0,1,1.425.615,1.8,1.8,0,0,1-.114,2.347A1.593,1.593,0,0,1,974.274,459.7Z" transform="translate(-146.438 -44.386)" fill="#282e41"/>
    <path id="Path_82" data-name="Path 82" d="M930.376,449.33l-2.514.006L922.2,462.249l3.135-.008,1.2-2.844,5.1.018,1.225,2.8,3.173.031Q933.206,455.786,930.376,449.33Zm-2.842,7.565,1.561-4.267,1.62,4.267Z" transform="translate(-127.062 -44.583)" fill="#23293d"/>
  </g>
</svg>