<?xml version="1.0" standalone="no"?>
<!DOCTYPE svg PUBLIC "-//W3C//DTD SVG 20010904//EN"
 "http://www.w3.org/TR/2001/REC-SVG-20010904/DTD/svg10.dtd">
<svg version="1.0" xmlns="http://www.w3.org/2000/svg"
 width="201.000000pt" height="158.000000pt" viewBox="0 0 201.000000 158.000000"
 preserveAspectRatio="xMidYMid meet">

<g transform="translate(0.000000,158.000000) scale(0.100000,-0.100000)"
fill="#000000" stroke="none">
<path d="M338 1524 c-131 -189 -177 -238 -265 -283 -46 -23 -63 -46 -63 -85 0
-28 42 -66 72 -66 29 0 111 45 173 95 l55 45 0 -214 0 -214 -126 -4 c-124 -3
-126 -3 -150 -31 -21 -25 -24 -37 -24 -117 0 -113 16 -136 102 -150 71 -11
107 -29 146 -74 43 -49 52 -91 52 -238 0 -120 1 -128 24 -155 23 -26 30 -28
114 -31 87 -4 90 -3 123 26 33 30 33 30 39 143 7 137 26 186 102 254 70 63
118 75 299 75 170 0 225 -14 297 -75 68 -58 94 -125 101 -260 8 -151 15 -159
140 -163 86 -4 89 -3 122 26 l34 30 5 154 c6 162 13 189 62 235 32 30 90 53
133 53 24 0 44 9 67 29 33 29 33 30 33 121 0 91 0 92 -33 121 -32 28 -34 29
-147 29 l-115 0 0 217 0 217 38 -36 c40 -38 122 -91 160 -103 33 -10 78 12 92
44 17 41 -2 72 -66 105 -66 35 -154 127 -225 236 -76 116 -120 121 -188 22
-80 -119 -216 -217 -356 -257 -72 -21 -218 -24 -295 -6 -76 18 -185 72 -249
123 -30 24 -82 79 -116 123 -55 71 -65 80 -98 83 -34 3 -39 -1 -69 -44z m292
-536 l0 -188 -60 0 -60 0 0 229 0 230 60 -41 60 -42 0 -188z m880 42 l0 -230
-65 0 -65 0 0 188 1 187 62 42 c34 24 63 43 65 43 1 0 2 -103 2 -230z m-641
59 l61 -12 0 -138 0 -139 -75 0 -75 0 0 156 c0 130 2 155 14 151 8 -3 41 -11
75 -18z m361 -134 l0 -155 -75 0 -75 0 0 138 0 139 68 15 c37 9 70 16 75 17 4
0 7 -69 7 -154z"/>
</g>
</svg>
