<svg width="384" height="299" viewBox="0 0 384 299" fill="none" xmlns="http://www.w3.org/2000/svg">
<path d="M216.5 2V49M216.5 49V99M216.5 49H166.5M216.5 49H266.5M216.5 99V149M216.5 99H166.5M216.5 99H266.5M216.5 149V199M216.5 149H166.5M216.5 149H266.5M216.5 199V249M216.5 199H166.5M216.5 199H266.5M216.5 249V297M216.5 249H166.5M216.5 249H266.5M266.5 2V49M266.5 49V99M266.5 49H316.5M266.5 99V149M266.5 99H316.5M266.5 149V199M266.5 149H316.5M266.5 199V249M266.5 199H316.5M266.5 249V297M266.5 249H316.5M316.5 2V49M316.5 49V99M316.5 49H366.5M316.5 99V149M316.5 99H366.5M316.5 149V199M316.5 149H366.5M316.5 199V249M316.5 199H366.5M316.5 249V297M316.5 249H366.5M366.5 2V49M366.5 49V99M366.5 49H416.5M366.5 99V149M366.5 99H416.5M366.5 149V199M366.5 149H416.5M366.5 199V249M366.5 199H416.5M366.5 249V297M366.5 249H416.5M416.5 2V49M416.5 49V99M416.5 49H466.5M416.5 99V149M416.5 99H466.5M416.5 149V199M416.5 149H466.5M416.5 199V249M416.5 199H466.5M416.5 249V297M416.5 249H466.5M466.5 2V49M466.5 49V99M466.5 49H516.5M466.5 99V149M466.5 99H516.5M466.5 149V199M466.5 149H516.5M466.5 199V249M466.5 199H516.5M466.5 249V297M466.5 249H516.5M516.5 2V49M516.5 49V99M516.5 49H558.5M516.5 99V149M516.5 99H558.5M516.5 149V199M516.5 149H558.5M516.5 199V249M516.5 199H558.5M516.5 249V297M516.5 249H558.5M166.5 249V199M166.5 249V297M166.5 249H116.5M166.5 199V149M166.5 199H116.5M166.5 149V99M166.5 149H116.5M166.5 99V49M166.5 99H116.5M166.5 49V2M166.5 49H116.5M558.5 -1H-175.5M-133.5 2V49M-133.5 49V99M-133.5 49H-175.5M-133.5 49H-83.5M-133.5 99V149M-133.5 99H-175.5M-133.5 99H-83.5M-133.5 149V199M-133.5 149H-175.5M-133.5 149H-83.5M-133.5 199V249M-133.5 199H-175.5M-133.5 199H-83.5M-133.5 249V297M-133.5 249H-175.5M-133.5 249H-83.5M-83.5 2V49M-83.5 49V99M-83.5 49H-33.5M-83.5 99V149M-83.5 99H-33.5M-83.5 149V199M-83.5 149H-33.5M-83.5 199V249M-83.5 199H-33.5M-83.5 249V297M-83.5 249H-33.5M-33.5 2V49M-33.5 49V99M-33.5 49H16.5M-33.5 99V149M-33.5 99H16.5M-33.5 149V199M-33.5 149H16.5M-33.5 199V249M-33.5 199H16.5M-33.5 249V297M-33.5 249H16.5M16.5 2V49M16.5 49V99M16.5 49H66.5M16.5 99V149M16.5 99H66.5M16.5 149V199M16.5 149H66.5M16.5 199V249M16.5 199H66.5M16.5 249V297M16.5 249H66.5M66.5 2V49M66.5 49V99M66.5 49H116.5M66.5 99V149M66.5 99H116.5M66.5 149V199M66.5 149H116.5M66.5 199V249M66.5 199H116.5M66.5 249V297M66.5 249H116.5M116.5 2V49M116.5 49V99M116.5 99V149M116.5 149V199M116.5 199V249M116.5 249V297" stroke="url(#paint0_radial_2_237)" stroke-opacity="0.4"/>
<path opacity="1" d="M116.5 251V149H166.5M166.5 149V251M166.5 149V99H145L191 49L237 99H216.5V200.5M216.5 251V199H266.5V251" stroke="url(#paint1_linear_2_237)" stroke-width="3" transform="translate(0,25)"/>
<defs>
<radialGradient id="paint0_radial_2_237" cx="0" cy="0" r="1" gradientUnits="userSpaceOnUse" gradientTransform="translate(191.5 148) rotate(34.9245) scale(173.8 428.085)">
<stop stop-color="#000000"/>
<stop offset="1" stop-color="#000000" stop-opacity="0"/>
</radialGradient>
<linearGradient id="paint1_linear_2_237" x1="191.5" y1="53" x2="191.5" y2="251" gradientUnits="userSpaceOnUse">
<stop/>
<stop offset="1" stop-opacity="0"/>
</linearGradient>
</defs>
</svg>
