<svg width="384" height="300" viewBox="0 0 384 300" fill="none" xmlns="http://www.w3.org/2000/svg">
<path d="M216.5 3V50M216.5 50V100M216.5 50H166.5M216.5 50H266.5M216.5 100V150M216.5 100H166.5M216.5 100H266.5M216.5 150V200M216.5 150H166.5M216.5 150H266.5M216.5 200V250M216.5 200H166.5M216.5 200H266.5M216.5 250V298M216.5 250H166.5M216.5 250H266.5M266.5 3V50M266.5 50V100M266.5 50H316.5M266.5 100V150M266.5 100H316.5M266.5 150V200M266.5 150H316.5M266.5 200V250M266.5 200H316.5M266.5 250V298M266.5 250H316.5M316.5 3V50M316.5 50V100M316.5 50H366.5M316.5 100V150M316.5 100H366.5M316.5 150V200M316.5 150H366.5M316.5 200V250M316.5 200H366.5M316.5 250V298M316.5 250H366.5M366.5 3V50M366.5 50V100M366.5 50H416.5M366.5 100V150M366.5 100H416.5M366.5 150V200M366.5 150H416.5M366.5 200V250M366.5 200H416.5M366.5 250V298M366.5 250H416.5M416.5 3V50M416.5 50V100M416.5 50H466.5M416.5 100V150M416.5 100H466.5M416.5 150V200M416.5 150H466.5M416.5 200V250M416.5 200H466.5M416.5 250V298M416.5 250H466.5M466.5 3V50M466.5 50V100M466.5 50H516.5M466.5 100V150M466.5 100H516.5M466.5 150V200M466.5 150H516.5M466.5 200V250M466.5 200H516.5M466.5 250V298M466.5 250H516.5M516.5 3V50M516.5 50V100M516.5 50H558.5M516.5 100V150M516.5 100H558.5M516.5 150V200M516.5 150H558.5M516.5 200V250M516.5 200H558.5M516.5 250V298M516.5 250H558.5M166.5 250V200M166.5 250V298M166.5 250H116.5M166.5 200V150M166.5 200H116.5M166.5 150V100M166.5 150H116.5M166.5 100V50M166.5 100H116.5M166.5 50V3M166.5 50H116.5M558.5 0H-175.5M-133.5 3V50M-133.5 50V100M-133.5 50H-175.5M-133.5 50H-83.5M-133.5 100V150M-133.5 100H-175.5M-133.5 100H-83.5M-133.5 150V200M-133.5 150H-175.5M-133.5 150H-83.5M-133.5 200V250M-133.5 200H-175.5M-133.5 200H-83.5M-133.5 250V298M-133.5 250H-175.5M-133.5 250H-83.5M-83.5 3V50M-83.5 50V100M-83.5 50H-33.5M-83.5 100V150M-83.5 100H-33.5M-83.5 150V200M-83.5 150H-33.5M-83.5 200V250M-83.5 200H-33.5M-83.5 250V298M-83.5 250H-33.5M-33.5 3V50M-33.5 50V100M-33.5 50H16.5M-33.5 100V150M-33.5 100H16.5M-33.5 150V200M-33.5 150H16.5M-33.5 200V250M-33.5 200H16.5M-33.5 250V298M-33.5 250H16.5M16.5 3V50M16.5 50V100M16.5 50H66.5M16.5 100V150M16.5 100H66.5M16.5 150V200M16.5 150H66.5M16.5 200V250M16.5 200H66.5M16.5 250V298M16.5 250H66.5M66.5 3V50M66.5 50V100M66.5 50H116.5M66.5 100V150M66.5 100H116.5M66.5 150V200M66.5 150H116.5M66.5 200V250M66.5 200H116.5M66.5 250V298M66.5 250H116.5M116.5 3V50M116.5 50V100M116.5 100V150M116.5 150V200M116.5 200V250M116.5 250V298" stroke="url(#paint0_radial_2_314)" stroke-opacity="0.3"/>
<g opacity="1">
<rect x="55.5" y="91" width="121" height="121" rx="60.5" fill="#000000" fill-opacity="0.1"/>
<path d="M116.082 139.256V131.203L98.6295 122L82 131.203V151.253L98.6295 161.279L133.041 141.393L150 151.253V171.139L133.041 181L116.082 170.482V162.922" stroke="black" stroke-opacity="0.9" stroke-width="3"/>
<rect x="57" y="92.5" width="118" height="118" rx="59" stroke="black" stroke-opacity="0.9" stroke-width="3"/>
<rect x="206.5" y="91" width="121" height="121" rx="60.5" fill="#000000" fill-opacity="0.1"/>
<path d="M289 150.045L267 164.5L245 150.045L267 109.5L289 150.045Z" stroke="black" stroke-opacity="0.9" stroke-width="3"/>
<path d="M289 159.5L267 193.5L245 159.5L267 174.426L289 159.5Z" stroke="black" stroke-opacity="0.9" stroke-width="3"/>
<rect x="208" y="92.5" width="118" height="118" rx="59" stroke="black" stroke-opacity="0.9" stroke-width="3"/>
</g>
<defs>
<radialGradient id="paint0_radial_2_314" cx="0" cy="0" r="1" gradientUnits="userSpaceOnUse" gradientTransform="translate(191.5 149) rotate(34.9245) scale(173.8 428.085)">
<stop stop-color="#000000"/>
<stop offset="1" stop-color="#000000" stop-opacity="0"/>
</radialGradient>
</defs>
</svg>
